# xmcd
#
# Track frame offsets: 
#        183
#        26210
#        42280
#        71870
#        102633
#        139123
#        186728
#        214868
#        249635
#        290348
#
# Disc length: 4247 seconds
#
# Revision: 0
# Processed by: cddbd v1.5.2PL0 Copyright (c) Steve Scherf et al.
# Submitted via: ExactAudioCopy v0.99pb5
#
DISCID=a810950a
DTITLE=Various Artist - Millennium Grooves
DYEAR=1996
DGENRE=Lo-Fi
TTITLE0=Lee Van Cleef - Toker
TTITLE1=Moog - Everything (59 Min Dub)
TTITLE2=Cane - Released in Space (Mix 1)
TTITLE3=Moog - The Deep Freeze (Moogdub 1)
TTITLE4=Disco Direction - Party Rock (Disco Mix)
TTITLE5=Danmass - Bosh (Slipping Into Danmass Dub)
TTITLE6=The Stuntmen - Get On It
TTITLE7=Moog - Everything (Demon Guitar Mix)
TTITLE8=Danmass - Buzz (Mainmix)
TTITLE9=Snappy Sid - Beautiful Morning
EXTD=
EXTT0=
EXTT1=
EXTT2=
EXTT3=
EXTT4=
EXTT5=
EXTT6=
EXTT7=
EXTT8=
EXTT9=
PLAYORDER=
